# xmcd
#
# Track frame offsets:
#	150
#	17853
#	35082
#	52233
#	68753
#	84169
#	102353
#	131637
#	146450
#	165823
#
# Disc length: 2513 seconds
# Revision: 0
# Processed by: cddbd v1.5.2PL0 Copyright (c) Steve Scherf et al.
# Submitted via: dBpowerAMP V12.0
#
DISCID=8109cf0a
DTITLE=Various Artist - On The Edge
DYEAR=2013
DGENRE=Country
TTITLE0=Frank Solivan and Dirty Kitchen With Rob Ickes - I Fell Short
TTITLE1=Frank Solivan and Dirty Kitchen With Megan Mccormick - Gone
TTITLE2=Frank Solivan and Dirty Kitchen - The Letter
TTITLE3=Frank Solivan and Dirty Kitchen With Rob Ickes and Megan Mccormick - Day to Day
TTITLE4=Frank Solivan and Dirty Kitchen With Rob Ickes - M80
TTITLE5=Frank Solivan and Dirty Kitchen With Tim O'Brien and Rob Ickes - On The Edge of Letting Go
TTITLE6=Frank Solivan and Dirty Kitchen - Too Far Gone
TTITLE7=Frank Solivan and Dirty Kitchen - Wild Unknown
TTITLE8=Frank Solivan and Dirty Kitchen - No Chance
TTITLE9=Frank Solivan and Dirty Kitchen - Bedrock
EXTD=
EXTT0=
EXTT1=
EXTT2=
EXTT3=
EXTT4=
EXTT5=
EXTT6=
EXTT7=
EXTT8=
EXTT9=
PLAYORDER=
